<svg xmlns="http://www.w3.org/2000/svg" viewBox="0 0 168.59 138.13"><defs><style>.cls-1{fill:#fff;}.cls-2{fill:#dbcec8;}.cls-3,.cls-4,.cls-5,.cls-6,.cls-7{fill:none;stroke-miterlimit:10;}.cls-3,.cls-4,.cls-5,.cls-7{stroke:#3e3127;}.cls-3{stroke-width:5px;}.cls-4,.cls-5,.cls-6{stroke-width:3px;}.cls-5{opacity:0.5;}.cls-6{stroke:#fff;stroke-linecap:round;}.cls-7{stroke-width:4px;}</style></defs><title>Asset 33</title><g id="Layer_2" data-name="Layer 2"><g id="Layer_1-2" data-name="Layer 1"><path class="cls-1" d="M20.66,112.39l5.68,21.8a1.78,1.78,0,0,0,2.18,1.27l65.9-17.19a1.78,1.78,0,0,0,1.27-2.17h0a1.78,1.78,0,0,0-1.77-1.34c-19.5.7-48.07,11.39-70.51-4.26A1.77,1.77,0,0,0,20.66,112.39Z"/><rect class="cls-1" x="13.34" y="31.06" width="71.67" height="97.38" rx="1.3" transform="translate(116.89 144.51) rotate(165.38)"/><circle class="cls-1" cx="44.77" cy="108.88" r="1.65"/><circle class="cls-1" cx="36.56" cy="114.13" r="4.66"/><path class="cls-2" d="M20.66,112.39l5.68,21.8a1.78,1.78,0,0,0,2.18,1.27l65.9-17.19a1.78,1.78,0,0,0,1.27-2.17h0a1.78,1.78,0,0,0-1.77-1.34c-19.5.7-48.07,11.39-70.51-4.26A1.77,1.77,0,0,0,20.66,112.39Z"/><rect class="cls-3" x="13.34" y="31.06" width="71.67" height="97.38" rx="1.3" transform="translate(116.89 144.51) rotate(165.38)"/><circle class="cls-2" cx="44.84" cy="108.77" r="1.56"/><circle class="cls-2" cx="37.1" cy="113.72" r="4.39"/><line class="cls-4" x1="63.8" y1="44.4" x2="24.74" y2="54.52"/><line class="cls-5" x1="66.29" y1="52.25" x2="48.35" y2="56.56"/><line class="cls-6" x1="92.01" y1="71.11" x2="97.11" y2="71.57"/><polygon class="cls-1" points="152.81 110.67 152.81 15.44 60.15 15.44 60.15 132.3 131.69 132.3 152.81 110.67"/><polyline class="cls-7" points="145.22 131.77 166.59 131.77 166.59 14.73 161.97 14.73"/><polygon class="cls-2" points="151.64 13.69 151.64 108.92 130.51 130.55 117.39 130.55 143.89 104.05 143.89 13.69 151.64 13.69"/><circle class="cls-2" cx="143.13" cy="40.87" r="5.18"/><circle class="cls-2" cx="133.89" cy="36.54" r="2.31"/><polygon class="cls-3" points="153.2 109.89 153.2 14.66 60.54 14.66 60.54 131.52 132.07 131.52 153.2 109.89"/><path class="cls-7" d="M73.78,14.27V12.42A10.42,10.42,0,0,1,84.2,2h0A10.41,10.41,0,0,1,94.62,12.42V37.25a9.35,9.35,0,0,1-9.35,9.35h0a9.35,9.35,0,0,1-9.35-9.35V30.43"/><line class="cls-7" x1="77.48" y1="63.23" x2="126.17" y2="63.23"/><line class="cls-7" x1="77.48" y1="73.25" x2="101.17" y2="73.25"/><line class="cls-7" x1="77.48" y1="83.16" x2="118.17" y2="83.16"/></g></g></svg>